<svg id="Camada_1" data-name="Camada 1" xmlns="http://www.w3.org/2000/svg" viewBox="0 0 623.12 280.22"><defs><style>.cls-1{fill:#fff;}.cls-2{fill:#25cbdb;}</style></defs><path class="cls-1" d="M1656.42,1793.44q-42.39,0-67.1-24.89t-24.7-67.65q0-27.66,11.06-48.85t30.42-32.82q19.35-11.61,44.79-11.61,36.51,0,57.15,23.41t20.64,64.34q0,11.43-12.9,11.43h-122q1.47,30.6,17.69,46.63t45,16a101.49,101.49,0,0,0,24.7-3.13,75,75,0,0,0,24.34-11.25q8.47-5.52,14.19-2.21a11.34,11.34,0,0,1,5.9,10.14q.18,6.82-7.56,12a91.31,91.31,0,0,1-28.94,13.64A118.77,118.77,0,0,1,1656.42,1793.44Zm-4.79-163.7q-25.44,0-40.19,15.85t-17.32,41.67h108.76q-1.11-27.29-14.2-42.4T1651.63,1629.74Z" transform="translate(-1355.38 -1514.35)"/><path class="cls-1" d="M1829,1792.7q-12.92,0-19.17-14.38l-63.79-149q-3.69-8.47-.37-14.75t13.28-6.26q10.32,0,15.11,11.79l55.67,136,56.41-136q2.58-6.63,5.9-9.21t9.59-2.58q8.48,0,11.43,6.26t-.37,14.38l-64.52,149.32Q1842.23,1792.71,1829,1792.7Z" transform="translate(-1355.38 -1514.35)"/><path class="cls-1" d="M1959.48,1792q-14.74,0-14.75-16.22V1625q0-15.85,14.75-15.86,15.12,0,15.12,15.86v150.79Q1974.6,1792,1959.48,1792Z" transform="translate(-1355.38 -1514.35)"/><circle class="cls-2" cx="603.72" cy="44.87" r="19.4"/><path class="cls-1" d="M1355.78,1679.66a79.08,79.08,0,0,0,3.21,20.06c6.6,21.57,30.06,38.48,51.86,40.31l.61,0a54.22,54.22,0,0,1-21.11-26.37c-9.58-26.26,8-60.25,36.5-72.1,23.13-9.62,50.09-3.21,67.25,13.43,19.71,19.12,19,44.48,18.84,48.36-.16,3.57-1.39,24.29-17.33,41.07-24.63,25.94-63.22,20.2-75.23,18.41a118,118,0,0,1-35.6-11.87,122,122,0,0,1-29-20.9c1.31,3,26.06,56.89,82,63.8,6.66.82,43.62,4.66,74.6-21.81,24.89-21.25,30.43-48.82,31.64-55.95a94.86,94.86,0,0,0-26.31-82.69c-26.12-26-59.22-27.44-64.1-27.57-23.73-.64-47.73,7.31-65.64,23.94q-.11-46.78-.2-93.59c-2.78-14.62-21.35-24.06-32.44-21.46,0,138.12.38,86.83.12,143.91Z" transform="translate(-1355.38 -1514.35)"/></svg>