<svg id="Camada_1" data-name="Camada 1" xmlns="http://www.w3.org/2000/svg" viewBox="0 0 623.12 280.22"><defs><style>.cls-1{fill:#222343;}.cls-2{fill:#25cbdb;}</style></defs><path class="cls-1" d="M1628.87,678.66q-42.4,0-67.1-24.89t-24.7-67.65q0-27.64,11.06-48.85t30.41-32.81q19.37-11.62,44.8-11.62,36.5,0,57.14,23.41t20.65,64.34q0,11.43-12.9,11.43h-122q1.47,30.6,17.7,46.64t45,16a101.55,101.55,0,0,0,24.7-3.13,74.71,74.71,0,0,0,24.33-11.24q8.47-5.54,14.2-2.22a11.37,11.37,0,0,1,5.9,10.14q.18,6.82-7.56,12a91.33,91.33,0,0,1-28.94,13.65A118.8,118.8,0,0,1,1628.87,678.66ZM1624.08,515q-25.44,0-40.19,15.86t-17.33,41.66h108.76q-1.1-27.29-14.19-42.4T1624.08,515Z" transform="translate(-1327.83 -399.58)"/><path class="cls-1" d="M1801.41,677.92q-12.9,0-19.17-14.38l-63.78-148.95q-3.69-8.48-.37-14.74t13.27-6.27q10.32,0,15.12,11.8l55.67,136,56.41-136q2.58-6.64,5.9-9.22t9.58-2.58q8.48,0,11.43,6.27t-.37,14.38l-64.52,149.31Q1814.69,677.93,1801.41,677.92Z" transform="translate(-1327.83 -399.58)"/><path class="cls-1" d="M1931.93,677.18q-14.76,0-14.75-16.22V510.17q0-15.84,14.75-15.85,15.1,0,15.11,15.85V661Q1947,677.19,1931.93,677.18Z" transform="translate(-1327.83 -399.58)"/><circle class="cls-2" cx="603.72" cy="44.87" r="19.4"/><path class="cls-1" d="M1328.22,564.89a79.55,79.55,0,0,0,3.22,20.05c6.59,21.57,30.06,38.49,51.86,40.32l.61,0a54.22,54.22,0,0,1-21.11-26.37c-9.59-26.26,8-60.25,36.5-72.09,23.13-9.63,50.09-3.22,67.24,13.42,19.72,19.12,19,44.49,18.84,48.36-.16,3.57-1.38,24.29-17.32,41.07-24.63,25.94-63.22,20.2-75.24,18.41a118.15,118.15,0,0,1-35.6-11.87,121.37,121.37,0,0,1-29-20.9c1.31,3,26,56.9,82,63.8,6.67.82,43.62,4.66,74.61-21.8,24.88-21.26,30.43-48.83,31.64-56a95.29,95.29,0,0,0-5.5-51.06,94.26,94.26,0,0,0-20.82-31.62c-26.11-26-59.22-27.45-64.09-27.58-23.74-.63-47.74,7.32-65.65,23.94q-.11-46.78-.2-93.59c-2.77-14.61-21.34-24.06-32.43-21.45,0,138.11.38,86.82.12,143.9Z" transform="translate(-1327.83 -399.58)"/></svg>